<?xml version="1.0" encoding="UTF-8"?>
<svg version="1.1" xmlns="http://www.w3.org/2000/svg" width="1024" height="1024">
<path d="M0 0 C337.92 0 675.84 0 1024 0 C1024 337.92 1024 675.84 1024 1024 C686.08 1024 348.16 1024 0 1024 C0 686.08 0 348.16 0 0 Z " fill="#F6F0E7" transform="translate(0,0)"/>
<path d="M0 0 C0.59522461 0.27440918 1.19044922 0.54881836 1.80371094 0.83154297 C11.8108443 5.54338687 19.89919345 11.51100261 28 19 C28.66386719 19.59425781 29.32773437 20.18851562 30.01171875 20.80078125 C56.81010264 45.97502066 70.83939683 86.51138497 72.34765625 122.4609375 C73.29968885 164.33471328 62.01157434 206.59941773 32.78735352 237.61328125 C15.27561918 255.56273648 -7.48117431 268.56132082 -32.94140625 269.203125 C-62.43687806 269.55600536 -84.36247127 262.74193565 -106 242 C-106.73734375 241.32582031 -107.4746875 240.65164063 -108.234375 239.95703125 C-132.28368123 217.22958405 -146.5193212 181.32148684 -147.94140625 148.52734375 C-147.96074219 147.36332031 -147.98007812 146.19929687 -148 145 C-148.03649658 143.80334717 -148.03649658 143.80334717 -148.07373047 142.58251953 C-149.16737602 104.97062248 -139.91407097 67.43586383 -117 37 C-116.40703125 36.20207031 -115.8140625 35.40414062 -115.203125 34.58203125 C-99.31289006 13.93129205 -76.06784817 -3.09532994 -49.90234375 -7.68359375 C-32.74603115 -9.553932 -15.70195142 -7.24559927 0 0 Z " fill="#041F3B" transform="translate(631,370)"/>
<path d="M0 0 C1.36882576 0.00067978 1.36882576 0.00067978 2.76530457 0.00137329 C3.72164795 -0.00198532 4.67799133 -0.00534393 5.66331482 -0.00880432 C8.85040056 -0.01836085 12.03743386 -0.02026096 15.22453308 -0.02133179 C17.44442771 -0.02454537 19.66432213 -0.02790952 21.88421631 -0.03141785 C26.55763742 -0.03742378 31.23104002 -0.03925667 35.90446472 -0.03866577 C41.84739076 -0.03856503 47.79019493 -0.05211814 53.73309231 -0.06943798 C58.33096848 -0.08065814 62.92881634 -0.0825818 67.52670479 -0.08205605 C69.71399918 -0.08322495 71.90129458 -0.08758438 74.08857536 -0.09538841 C90.76887769 -0.14924426 107.22083468 0.34152612 123.47843933 4.45913696 C124.36096375 4.67787476 125.24348816 4.89661255 126.15275574 5.12197876 C155.30222149 12.56820151 181.04045964 30.14698034 196.66593933 56.14663696 C197.04202332 56.76989868 197.4181073 57.3931604 197.80558777 58.03530884 C204.563165 69.46598013 209.10043106 81.37935634 212.66593933 94.14663696 C212.89184753 94.93360962 213.11775574 95.72058228 213.35050964 96.53140259 C216.7397047 108.89077135 217.0271579 121.23079408 217.04093933 133.95913696 C217.04302399 134.74046997 217.04510864 135.52180298 217.04725647 136.32681274 C217.04308637 150.13237128 216.23222964 163.94418204 212.60343933 177.33413696 C212.39573914 178.10821899 212.18803894 178.88230103 211.9740448 179.67984009 C203.12304216 210.85427806 184.23883762 236.59677563 155.97843933 252.77163696 C142.50879945 260.23201806 128.8058193 265.30284282 113.66593933 268.14663696 C112.79179697 268.31438724 111.91765461 268.48213751 111.01702309 268.65497112 C104.08883242 269.90447901 97.45314623 270.43937413 90.42131042 270.42129517 C89.36938507 270.4264061 88.31745972 270.43151703 87.23365784 270.43678284 C83.80217095 270.45053761 80.37088776 270.44973463 76.93937683 270.44741821 C74.5399315 270.45130922 72.14048686 270.45564473 69.74104309 270.46040344 C64.73665622 270.4678324 59.73233998 270.46759585 54.72795105 270.46231079 C48.30279341 270.45648071 41.87792073 270.47354812 35.45281029 270.49665546 C30.50988568 270.51134194 25.56703085 270.51227215 20.62408829 270.50914574 C18.25331171 270.50966021 15.88253136 270.51492139 13.51177597 270.52495766 C10.21319799 270.53722355 6.91519098 270.53059289 3.61662292 270.51895142 C2.63278625 270.52659515 1.64894958 270.53423889 0.63529968 270.54211426 C-0.25883636 270.53509995 -1.15297241 270.52808563 -2.07420349 270.52085876 C-3.24270308 270.52111038 -3.24270308 270.52111038 -4.43480873 270.52136707 C-5.06156187 270.39770614 -5.68831501 270.2740452 -6.33406067 270.14663696 C-8.63847621 266.69001365 -8.59266202 265.19805815 -8.33406067 261.14663696 C-6.79971988 258.07795539 -4.3866304 257.94520064 -1.20906067 256.83413696 C8.85971326 253.05316644 8.85971326 253.05316644 15.04093933 244.70913696 C17.54420734 238.62510734 17.81321776 232.51455549 17.7996521 226.00679016 C17.80191766 225.20355389 17.80418321 224.40031762 17.80651742 223.57274085 C17.81283115 220.88991998 17.81202975 218.20714997 17.811203 215.52432251 C17.81419614 213.59717748 17.81759902 211.67003305 17.82138062 209.7428894 C17.83020921 204.51346513 17.83255825 199.28405723 17.8331964 194.05462623 C17.83390756 190.78573738 17.83604314 187.51685268 17.83869362 184.24796486 C17.84794333 172.83894207 17.85202898 161.42993096 17.85124207 150.02090454 C17.8506414 139.39409668 17.861192 128.7673396 17.87698573 118.14054459 C17.89007106 109.00999516 17.89542554 99.87946231 17.89478666 90.74890357 C17.89453196 85.29872179 17.89736767 79.84858513 17.90796471 74.3984127 C17.91766234 69.2708902 17.91771341 64.14345583 17.91044807 59.01593018 C17.9094043 57.13784977 17.91175278 55.25976382 17.91780853 53.38169289 C17.92556089 50.81017078 17.92086233 48.2389506 17.91317749 45.66743469 C17.91832105 44.93122617 17.92346462 44.19501765 17.92876405 43.43649977 C17.87083962 34.61396019 16.37222253 27.28795474 10.27140808 20.62319946 C5.22523929 15.78575298 -0.86011915 13.54911772 -7.33406067 11.14663696 C-7.36094218 9.5008913 -7.3804019 7.85502283 -7.39656067 6.20913696 C-7.40816223 5.29261353 -7.41976379 4.37609009 -7.43171692 3.43179321 C-7.22983452 -1.29225497 -3.96679985 0.02050232 0 0 Z " fill="#031E3B" transform="translate(707.3340606689453,364.8533630371094)"/>
<path d="M0 0 C14.87487891 -0.09412314 29.74973446 -0.16430777 44.62484932 -0.20724869 C51.53418149 -0.22773138 58.44332692 -0.25557204 65.35253906 -0.30175781 C72.03752028 -0.34642275 78.72226887 -0.36922969 85.40740585 -0.37950897 C87.94030661 -0.38682139 90.47319848 -0.401097 93.00601578 -0.42292023 C113.20327088 -0.58980336 133.437338 0.22210698 152 9 C152.93714844 9.41765625 153.87429688 9.8353125 154.83984375 10.265625 C168.83981061 17.0987084 177.46522568 29.12155005 183.140625 43.28515625 C185.39670937 50.41233186 186.36389098 57.15495442 186.3125 64.625 C186.30686035 65.49310303 186.3012207 66.36120605 186.29541016 67.25561523 C186.00982339 82.62781795 182.68154169 95.23625898 172 106.6875 C161.96702218 116.16684109 150.53237661 120.89236899 137.54296875 124.87109375 C134.21364902 125.63333127 134.21364902 125.63333127 133 127 C133.59312988 127.11480713 134.18625977 127.22961426 134.79736328 127.34790039 C158.68433329 132.07952683 178.88162531 141.31554296 193 162 C202.07229488 178.12222403 203.5522915 197.0510425 199.9375 215.125 C194.92582707 232.51573601 184.26332874 245.8849555 168.6875 254.921875 C161.30154681 258.97140163 153.7715106 261.95783149 145.6875 264.3125 C144.51828003 264.65764648 144.51828003 264.65764648 143.32543945 265.00976562 C125.24687844 269.94702806 107.42769872 270.4260228 88.8046875 270.328125 C86.23349112 270.32506048 83.66229307 270.32318964 81.09109497 270.32244873 C75.74767074 270.31788197 70.40440312 270.3039869 65.06103516 270.28125 C58.19776255 270.25210547 51.33459357 270.2419961 44.47126579 270.2375679 C39.1835528 270.23402503 33.89585841 270.2236241 28.60815811 270.21169281 C26.07467975 270.20598582 23.54119907 270.20122854 21.00771713 270.19742584 C17.49191866 270.19059612 13.97621708 270.17698641 10.46044922 270.16113281 C8.88358841 270.15945602 8.88358841 270.15945602 7.27487183 270.15774536 C6.32491333 270.15203522 5.37495483 270.14632507 4.39620972 270.14044189 C3.1514729 270.1359799 3.1514729 270.1359799 1.88158989 270.13142776 C-0 270 -0 270 -1 269 C-1.47331601 261.66360184 -1.47331601 261.66360184 0.15625 259.37890625 C2.542989 257.59390865 4.94064211 256.80005347 7.75 255.8125 C13.67012354 253.42581581 17.77220747 250.58582061 21 245 C22.83277359 239.6595314 23.29159687 234.98740922 23.27415466 229.36698914 C23.27939134 228.52276848 23.28462802 227.67854783 23.29002339 226.80874473 C23.30496897 223.99313476 23.30572734 221.17770739 23.30639648 218.36206055 C23.31402157 216.33786718 23.32244967 214.3136767 23.33161926 212.28948975 C23.3535353 206.79973286 23.36235917 201.31003166 23.36744571 195.82023597 C23.37109238 192.38800699 23.37733404 188.95579254 23.3844471 185.52356911 C23.40893053 173.54280585 23.42199132 161.56208582 23.42553711 149.58129883 C23.42917257 138.42441277 23.45907174 127.26780176 23.50094169 116.11099976 C23.53566034 106.52266172 23.55108582 96.93441478 23.55178314 87.34601432 C23.55257534 81.62352764 23.56128843 75.90132134 23.58978081 70.17889977 C23.61598853 64.79514797 23.61815127 59.41190852 23.60212517 54.02812195 C23.60031292 52.05692234 23.60698109 50.08569307 23.62294388 48.11455727 C23.84295497 32.52952428 23.84295497 32.52952428 16.41274166 19.18223095 C11.67944387 14.38640198 5.19754748 12.29991089 -1 10 C-1.125 2.25 -1.125 2.25 0 0 Z " fill="#041F3C" transform="translate(105,365)"/>
<path d="M0 0 C23.83502278 17.48451498 31.53691756 46.83174843 35.9609375 74.78979492 C37.65363662 86.40215815 38.11623773 97.93483573 38.2578125 109.65625 C38.27827637 110.96255371 38.29874023 112.26885742 38.31982422 113.61474609 C38.92534907 154.41371184 37.84885386 206.9064316 8.2578125 238.65625 C-0.87433216 247.32430207 -9.27403813 251.26879876 -21.90625 251.13378906 C-27.62234795 250.89153539 -31.91797006 249.65311235 -36.7421875 246.65625 C-37.7321875 246.099375 -38.7221875 245.5425 -39.7421875 244.96875 C-61.16868432 228.45249203 -68.17578879 201.78394959 -72.4296875 176.21875 C-72.54924805 175.51685547 -72.66880859 174.81496094 -72.79199219 174.09179688 C-74.96659001 160.01048806 -74.97820016 145.56288315 -74.9921875 131.34375 C-74.99352692 130.52563843 -74.99486633 129.70752686 -74.99624634 128.86462402 C-74.99089144 113.62939489 -73.88680256 98.75280814 -71.7421875 83.65625 C-71.63003906 82.81304199 -71.51789062 81.96983398 -71.40234375 81.10107422 C-67.86205755 54.75107372 -61.01089425 25.95888053 -41.7421875 6.65625 C-40.86046875 5.75712891 -40.86046875 5.75712891 -39.9609375 4.83984375 C-29.79516332 -4.72653337 -12.17825512 -7.43079973 0 0 Z " fill="#F6F0E8" transform="translate(611.7421875,377.34375)"/>
<path d="M0 0 C22.89376508 0.02473665 43.85569286 3.82755396 60.73486328 20.33496094 C84.48830838 45.21141992 89.07329926 86.93576022 88.85253906 119.79223633 C88.83644796 122.62402612 88.85251303 125.45438539 88.87158203 128.28613281 C88.91099186 162.26876839 82.8547339 201.1842067 58.85205078 226.90136719 C46.04986893 239.1596655 31.66524195 243.54738372 14.19970703 243.40917969 C7.18700111 242.99882281 0.36458245 241.53932787 -4.53857422 236.19042969 C-7.51113654 230.5496561 -7.96479643 226.0130455 -7.90606689 219.69961548 C-7.90933573 218.76329013 -7.91260458 217.82696479 -7.91597247 216.86226594 C-7.92323603 213.73532196 -7.90911253 210.60884874 -7.89501953 207.48193359 C-7.89581061 205.23624593 -7.89790852 202.99055841 -7.9012146 200.74487305 C-7.90634451 194.6544401 -7.89282319 188.56417637 -7.8756876 182.47377062 C-7.86065099 176.10543258 -7.86182569 169.73709672 -7.86102295 163.3687439 C-7.85733198 152.68085514 -7.842461 141.99303649 -7.81982422 131.30517578 C-7.79653492 120.30126411 -7.78239468 109.29739314 -7.77880859 98.29345703 C-7.77858583 97.61482651 -7.77836306 96.93619598 -7.77813354 96.2370009 C-7.77769095 94.86993172 -7.77724892 93.50286253 -7.77680747 92.13579335 C-7.77658791 91.46147404 -7.77636834 90.78715473 -7.77614212 90.0924015 C-7.77592613 89.41981066 -7.77571015 88.74721981 -7.77548762 88.05424742 C-7.77156807 76.93908328 -7.75887035 65.82392679 -7.74579525 54.70877028 C-7.74168965 50.90813822 -7.73876749 47.10750657 -7.73600006 43.30687332 C-7.73112164 37.34957074 -7.72094305 31.3922998 -7.70656204 25.43501282 C-7.70202441 23.24235189 -7.69919694 21.0496867 -7.69815445 18.85702133 C-7.69641945 15.8777627 -7.68856522 12.89858433 -7.67901611 9.91934204 C-7.6798826 9.03989351 -7.68074908 8.16044498 -7.68164182 7.25434649 C-7.64569851 -0.15570614 -6.89414819 0.0613762 0 0 Z " fill="#F6F1E8" transform="translate(781.53857421875,375.8095703125)"/>
<path d="M0 0 C0.93147858 0.00359528 1.86295715 0.00719055 2.82266235 0.01089478 C3.79816544 0.01074875 4.77366852 0.01060272 5.7787323 0.01045227 C9.01987899 0.01115184 12.260969 0.01894626 15.50210571 0.02676392 C17.74270089 0.02862794 19.98329648 0.03005192 22.22389221 0.03105164 C28.13404456 0.03487804 34.04417251 0.04470936 39.95431519 0.05575562 C45.98000763 0.06596711 52.005704 0.07054869 58.03140259 0.07559204 C69.86409563 0.08633152 81.69677052 0.10340941 93.52944946 0.12442017 C95.13670581 3.33893286 94.58693131 6.56054552 94.52944946 10.12442017 C93.55362915 10.43895142 92.57780884 10.75348267 91.57241821 11.07754517 C90.28702661 11.50913651 89.00188307 11.94146717 87.71694946 12.37442017 C87.07435181 12.5793811 86.43175415 12.78434204 85.76968384 12.99551392 C81.87039588 14.32894918 79.40000056 15.36990901 77.52944946 19.12442017 C75.55991863 28.88644257 78.99238171 36.94522665 83.23648071 45.51309204 C84.73229581 48.53409624 86.19398743 51.57054382 87.65444946 54.60879517 C89.4235424 58.28492397 91.19450391 61.95999185 92.97769165 65.62930298 C98.31779653 76.62309585 103.47647532 87.69415849 108.59585571 98.79238892 C110.41089088 102.72467057 112.24617696 106.64525504 114.11929321 110.55020142 C114.50037231 111.34651978 114.88145142 112.14283813 115.27407837 112.96328735 C115.96024296 114.39209098 116.65094958 115.8187271 117.34732056 117.24258423 C118.70770193 120.07988705 119.52944946 121.93179957 119.52944946 125.12442017 C124.84337223 122.71494376 126.49368371 119.24455981 128.96694946 114.24942017 C129.38815063 113.42208374 129.80935181 112.59474731 130.24331665 111.74234009 C131.69041435 108.87853063 133.11129658 106.00266676 134.52944946 103.12442017 C135.05748169 102.06271606 135.58551392 101.00101196 136.12954712 99.90713501 C143.15049638 85.75640047 149.81447644 71.46800247 156.15444946 56.99942017 C156.44831543 56.33068878 156.7421814 55.6619574 157.04495239 54.97296143 C164.54647177 40.10050227 164.54647177 40.10050227 166.52944946 24.12442017 C164.87458636 19.90451926 162.95132829 17.070875 159.52944946 14.12442017 C156.5483659 12.83477066 156.5483659 12.83477066 153.34194946 11.93692017 C147.59889391 10.19386461 147.59889391 10.19386461 146.52944946 9.12442017 C146.2665189 5.09281826 146.23540102 3.56549282 148.52944946 0.12442017 C151.30007935 -0.24307251 151.30007935 -0.24307251 154.87515259 -0.23202515 C155.85100563 -0.23509171 155.85100563 -0.23509171 156.84657288 -0.23822021 C159.00156571 -0.2412335 161.15579731 -0.22273569 163.31069946 -0.20370483 C164.80520437 -0.20064797 166.29971212 -0.1987713 167.79421997 -0.19802856 C170.9282418 -0.19342205 174.06200717 -0.17898341 177.19595337 -0.15682983 C181.21789475 -0.12854714 185.23963397 -0.11761872 189.26166534 -0.11314774 C192.34825676 -0.10899513 195.43480709 -0.09917899 198.52137756 -0.08727264 C200.00457937 -0.08156595 201.48778513 -0.07680856 202.97099304 -0.07300568 C205.0419817 -0.06614752 207.11280906 -0.05251729 209.18374634 -0.03671265 C210.36352051 -0.02988464 211.54329468 -0.02305664 212.75881958 -0.01602173 C215.52944946 0.12442017 215.52944946 0.12442017 217.52944946 1.12442017 C217.52944946 3.76442017 217.52944946 6.40442017 217.52944946 9.12442017 C216.73280884 9.43895142 215.93616821 9.75348267 215.11538696 10.07754517 C182.0390586 23.43684081 168.63469896 68.76471787 153.62246704 98.92202759 C149.31671755 107.57014624 144.99532454 116.21047006 140.65744019 124.84251404 C139.4371572 127.27105213 138.21820244 129.7002556 136.99942017 132.12954712 C136.38258308 133.35807684 135.76504439 134.58625448 135.1468811 135.81411743 C134.23217244 137.63146486 133.32001608 139.45007334 132.40835571 141.26895142 C131.87798706 142.3244519 131.34761841 143.37995239 130.80117798 144.46743774 C128.54856394 149.17375346 128.36994432 153.17147495 128.35244751 158.29263306 C128.34259071 159.54203674 128.34259071 159.54203674 128.33253479 160.81668091 C128.31280608 163.57681369 128.30113731 166.33689194 128.29116821 169.09707642 C128.28709269 170.04167662 128.28301716 170.98627682 128.27881813 171.95950127 C128.25795466 176.96360938 128.24365671 181.96769008 128.23428345 186.97183228 C128.22324597 192.12420716 128.18887766 197.27614696 128.14911175 202.42836857 C128.12287426 206.40312972 128.11458507 210.37778859 128.11100197 214.35262871 C128.10615085 216.25070557 128.09457924 218.14877832 128.07596397 220.0467701 C127.6126254 236.46551425 127.6126254 236.46551425 135.40444946 250.37442017 C140.71448279 254.45906119 147.33377371 256.70114615 153.52944946 259.12442017 C153.65444946 266.87442017 153.65444946 266.87442017 152.52944946 269.12442017 C139.65620783 269.32431392 126.782848 269.5080706 113.90908241 269.67100811 C107.93180346 269.74717171 101.95471076 269.82897317 95.97769165 269.92349243 C90.21365518 270.01443897 84.44959599 270.09079398 78.68522263 270.15686989 C76.48184326 270.18472314 74.27852487 270.21790764 72.07530594 270.25641441 C68.99832312 270.30929742 65.9216724 270.3435209 62.84439087 270.37319946 C61.92585831 270.39333603 61.00732574 270.4134726 60.06095886 270.43421936 C59.22520828 270.43850952 58.3894577 270.44279968 57.52838135 270.44721985 C56.80016489 270.45735957 56.07194843 270.46749929 55.32166481 270.47794628 C54.73023375 270.36128266 54.13880268 270.24461905 53.52944946 270.12442017 C51.20195602 266.63318 51.0264563 265.23219766 51.52944946 261.12442017 C54.39229202 257.58637889 57.16237545 256.29610637 61.40444946 254.81192017 C67.12009888 252.49645635 70.46235754 250.49232208 73.52944946 245.12442017 C77.86852249 234.82698104 78.21220228 224.87534177 78.27163696 213.90957642 C78.28963732 212.16481787 78.30788181 210.42006183 78.32635498 208.67530823 C78.35913441 205.03188667 78.37469651 201.38882798 78.38052368 197.74526978 C78.3891137 194.05464162 78.43065388 190.3668219 78.50357056 186.6769104 C79.27952345 157.71009861 79.27952345 157.71009861 68.77015686 131.12507629 C66.87304424 128.06595858 65.25647714 124.87768673 63.59194946 121.68692017 C62.94426714 120.496996 62.2947469 119.30806889 61.64273071 118.12051392 C57.44181276 110.30732889 53.77777605 102.20735914 49.98257446 94.19229126 C45.5411675 84.8154902 41.05647962 75.46017999 36.52944946 66.12442017 C36.08028168 65.19584198 36.08028168 65.19584198 35.62203979 64.24850464 C33.69607568 60.26861243 31.75689021 56.29555264 29.80252075 52.32952881 C29.17560616 51.05353175 28.55215073 49.77582764 27.93264771 48.49621582 C17.52309422 26.99424969 17.52309422 26.99424969 -1.40805054 13.87442017 C-2.34519897 13.60113892 -3.28234741 13.32785767 -4.24789429 13.04629517 C-5.34810913 12.58996704 -5.34810913 12.58996704 -6.47055054 12.12442017 C-7.76504548 8.24093532 -7.60258365 5.2174468 -7.47055054 1.12442017 C-5.52757729 -0.81855308 -2.58550872 0.00421719 0 0 Z " fill="#041F3B" transform="translate(295.4705505371094,365.8755798339844)"/>
<path d="M0 0 C3.31898052 -0.03678293 6.63790747 -0.05867511 9.95703125 -0.078125 C11.35024597 -0.09383545 11.35024597 -0.09383545 12.77160645 -0.10986328 C28.64960294 -0.17942734 44.14539101 2.85312886 56 14 C71.03355312 30.01935989 73.86369339 49.78841953 73.3125 70.83203125 C72.61894175 87.19257495 68.08672983 101.94140277 56.44140625 113.94140625 C45.5273606 123.14412954 30.64209542 123.73529643 17 123 C6.58688868 122.08498651 6.58688868 122.08498651 2.875 118.5 C0.35692594 115.14256792 -0.12478393 113.55337693 -0.12025452 109.43161011 C-0.12162918 108.46964722 -0.12300385 107.50768433 -0.12442017 106.51657104 C-0.12082489 105.4577774 -0.11722961 104.39898376 -0.11352539 103.30810547 C-0.11367142 102.19590637 -0.11381744 101.08370728 -0.1139679 99.93780518 C-0.1132691 96.2475797 -0.10547824 92.5574042 -0.09765625 88.8671875 C-0.09579195 86.31413806 -0.0943681 83.76108826 -0.09336853 81.20803833 C-0.08993553 75.16613084 -0.08204747 69.12424492 -0.07201904 63.08234608 C-0.06085045 56.20456124 -0.05534557 49.32677555 -0.05032361 42.44898391 C-0.03986466 28.2993126 -0.02226986 14.14965729 0 0 Z " fill="#F6F1E9" transform="translate(180,497)"/>
<path d="M0 0 C14.51630868 0.19828347 26.40646516 3.83081293 36.68457031 14.37939453 C47.76349132 27.59906322 50.768729 45.32217341 49.70849609 62.13769531 C48.25817016 77.0864358 43.06676513 92.21932934 31.49707031 102.31689453 C21.0823842 109.55637146 8.79571073 110.52147821 -3.48339844 110.39111328 C-4.45031616 110.38575562 -5.41723389 110.38039795 -6.41345215 110.37487793 C-8.77670488 110.3610065 -11.13976911 110.34155634 -13.50292969 110.31689453 C-13.52625998 96.12233412 -13.54384309 81.92777666 -13.55474186 67.73320103 C-13.55997141 61.14284668 -13.56707036 54.55250516 -13.57836914 47.9621582 C-13.58919547 41.60797435 -13.59520598 35.25380288 -13.59780693 28.89961052 C-13.59966164 26.46939842 -13.60328312 24.03918704 -13.60865974 21.60898018 C-13.61586679 18.21806472 -13.61692077 14.82720112 -13.61645508 11.4362793 C-13.62005035 10.42064407 -13.62364563 9.40500885 -13.62734985 8.3585968 C-13.62597519 7.44007935 -13.62460052 6.52156189 -13.6231842 5.57521057 C-13.624106 4.77232888 -13.62502779 3.96944719 -13.62597752 3.14223576 C-13.28035008 -1.98494132 -3.82187755 0.00583592 0 0 Z " fill="#F6F1E8" transform="translate(193.5029296875,375.68310546875)"/>
<path d="M0 0 C36.3 0 72.6 0 110 0 C110 0.33 110 0.66 110 1 C104.07708791 1.85911268 98.35100775 2.1385376 92.37109375 2.11352539 C91.44333633 2.11367142 90.51557892 2.11381744 89.55970764 2.1139679 C86.51894727 2.11327593 83.47824956 2.1055173 80.4375 2.09765625 C78.31901076 2.09578952 76.20052108 2.09436682 74.08203125 2.09336853 C68.52543939 2.08956341 62.96887395 2.07975035 57.41229248 2.06866455 C51.73450071 2.05840721 46.05670463 2.05386167 40.37890625 2.04882812 C29.2525926 2.03812619 18.1262985 2.02107398 7 2 C7 5.3 7 8.6 7 12 C0.125 11.125 0.125 11.125 -1 10 C-1.23880597 2.47761194 -1.23880597 2.47761194 0 0 Z " fill="#01081D" transform="translate(105,365)"/>
<path d="M0 0 C0.33 0 0.66 0 1 0 C1.01030746 1.07439835 1.02061493 2.14879669 1.03123474 3.25575256 C1.12909493 13.39305044 1.23184061 23.53028867 1.33933926 33.66748905 C1.39444583 38.87880975 1.44784582 44.09013617 1.49731445 49.30151367 C1.54513941 54.33306529 1.59748801 59.36455157 1.65294075 64.3960247 C1.67328239 66.3132813 1.69200858 68.23055576 1.70907402 70.14784431 C1.73330025 72.83829303 1.76332868 75.52862027 1.79467773 78.21899414 C1.8004332 79.00734146 1.80618866 79.79568878 1.81211853 80.60792542 C1.87224334 85.16330759 2.25777022 89.50368278 3 94 C-0.00617269 90.99382731 0.40414684 88.17618402 0 84 C-0.66 84 -1.32 84 -2 84 C-2 56.94 -2 29.88 -2 2 C-1.34 2 -0.68 2 0 2 C0 1.34 0 0.68 0 0 Z " fill="#1E2C3D" transform="translate(422,516)"/>
<path d="M0 0 C0.93297409 0.00202423 1.86594818 0.00404846 2.82719421 0.00613403 C4.293032 0.00350555 4.293032 0.00350555 5.78848267 0.00082397 C9.03805792 -0.00359819 12.28757928 -0.00065437 15.53715515 0.00271606 C17.78819286 0.00204291 20.03923049 0.00107279 22.29026794 -0.00018311 C27.01824126 -0.00166075 31.74619574 0.0004958 36.47416687 0.00515747 C42.53492365 0.01084175 48.59563602 0.00758444 54.65639114 0.00158501 C59.30949741 -0.00202996 63.96259318 -0.00087748 68.61569977 0.0017128 C70.85001887 0.00238015 73.08433893 0.00156032 75.31865692 -0.00076675 C78.44522624 -0.00330712 81.57172397 0.00056754 84.69828796 0.00613403 C86.08560371 0.00309769 86.08560371 0.00309769 87.50094604 0 C91.63702544 0.01363684 95.48904071 0.08378756 99.52153015 1.13552856 C99.52153015 1.46552856 99.52153015 1.79552856 99.52153015 2.13552856 C64.87153015 2.46552856 30.22153015 2.79552856 -5.47846985 3.13552856 C-5.80846985 5.44552856 -6.13846985 7.75552856 -6.47846985 10.13552856 C-5.81846985 10.46552856 -5.15846985 10.79552856 -4.47846985 11.13552856 C-5.46846985 11.13552856 -6.45846985 11.13552856 -7.47846985 11.13552856 C-7.50535136 9.48978291 -7.52481108 7.84391443 -7.54096985 6.19802856 C-7.55257141 5.28150513 -7.56417297 4.36498169 -7.5761261 3.42068481 C-7.37211205 -1.3532439 -3.98935892 0.01332888 0 0 Z " fill="#303845" transform="translate(707.4784698486328,364.8644714355469)"/>
<path d="M0 0 C0.33 0 0.66 0 1 0 C0.99777939 1.08470581 0.99555878 2.16941162 0.99327087 3.2869873 C0.97296812 13.52693048 0.95799352 23.76686955 0.94818783 34.00682831 C0.94297712 39.2708368 0.93591243 44.53482901 0.92456055 49.79882812 C0.91366722 54.88220886 0.90770952 59.96557395 0.90512276 65.04896545 C0.90328011 66.98495225 0.89968193 68.92093823 0.89426994 70.85691833 C0.88697393 73.57585476 0.88601266 76.29472718 0.88647461 79.01367188 C0.88287933 79.80777466 0.87928406 80.60187744 0.87557983 81.42004395 C0.88463399 86.3693819 1.33473794 91.09582066 2 96 C2.06349798 98.4992803 2.08653818 101.00002876 2.0625 103.5 C2.05347656 104.7271875 2.04445312 105.954375 2.03515625 107.21875 C2.01775391 108.59546875 2.01775391 108.59546875 2 110 C1.01 109.67 0.02 109.34 -1 109 C-1.02333039 94.93582343 -1.04091345 80.87164985 -1.05181217 66.80745792 C-1.0570417 60.27763767 -1.06414061 53.74783037 -1.07543945 47.21801758 C-1.08626585 40.92218841 -1.09227631 34.62637174 -1.09487724 28.33053398 C-1.09673194 25.92265056 -1.1003534 23.51476786 -1.10573006 21.10688972 C-1.1129372 17.74710714 -1.11399108 14.3873769 -1.11352539 11.02758789 C-1.11712067 10.02130341 -1.12071594 9.01501892 -1.12442017 7.97824097 C-1.1230455 7.06813766 -1.12167084 6.15803436 -1.12025452 5.22035217 C-1.12163721 4.02709116 -1.12163721 4.02709116 -1.12304783 2.80972385 C-1 1 -1 1 0 0 Z " fill="#0F2B47" transform="translate(178,376)"/>
<path d="M0 0 C0.33 0 0.66 0 1 0 C1.05076475 6.31710371 1.0857608 12.63415469 1.10986328 18.95141602 C1.11991265 21.09987351 1.13355433 23.24831737 1.15087891 25.39672852 C1.17517376 28.48717622 1.18649386 31.57744287 1.1953125 34.66796875 C1.20563507 35.62648239 1.21595764 36.58499603 1.22659302 37.57255554 C1.22736062 42.14860751 1.20761889 45.85594033 -1 50 C-2.2294908 46.3115276 -2.19071128 42.90520195 -2.1875 39.0625 C-2.18814453 38.25578857 -2.18878906 37.44907715 -2.18945312 36.61791992 C-2.08967221 24.38682032 -0.9860435 12.18524234 0 0 Z " fill="#EAE9E6" transform="translate(869,476)"/>
<path d="M0 0 C0.33 0 0.66 0 1 0 C1 8.58 1 17.16 1 26 C0.67 26 0.34 26 0 26 C0 17.42 0 8.84 0 0 Z M-3 23 C-2.01 23.99 -1.02 24.98 0 26 C-3.48519362 40.0022779 -3.48519362 40.0022779 -10 44 C-10.66 43.01 -11.32 42.02 -12 41 C-10.8553125 39.9790625 -10.8553125 39.9790625 -9.6875 38.9375 C-5.37152913 34.22004346 -3.76566624 29.27846313 -3 23 Z " fill="#061529" transform="translate(728,576)"/>
<path d="M0 0 C0.66 0.99 1.32 1.98 2 3 C-17.8 3 -37.6 3 -58 3 C-58 2.67 -58 2.34 -58 2 C-56.73929688 1.97494385 -55.47859375 1.9498877 -54.1796875 1.92407227 C-49.47565589 1.82947539 -44.77175407 1.72938499 -40.06787109 1.62768555 C-38.03697763 1.58453351 -36.00605248 1.54284567 -33.97509766 1.50268555 C-31.04580156 1.44450188 -28.11666206 1.38094928 -25.1875 1.31640625 C-24.28821777 1.29969376 -23.38893555 1.28298126 -22.46240234 1.26576233 C-14.99121161 1.09254762 -7.42306515 -0.59384521 0 0 Z " fill="#0F2A47" transform="translate(222,365)"/>
<path d="M0 0 C0 3.3 0 6.6 0 10 C-6.875 9.125 -6.875 9.125 -8 8 C-8.14115161 5.32941149 -8.04247107 2.67567762 -8 0 C-5.13822943 -1.43088528 -3.06624227 -0.59991697 0 0 Z " fill="#05172F" transform="translate(112,367)"/>
<path d="M0 0 C0.92554688 0.10699219 1.85109375 0.21398437 2.8046875 0.32421875 C3.71476563 0.42347656 4.62484375 0.52273438 5.5625 0.625 C7.81116529 0.90396975 10.05572189 1.21678651 12.296875 1.55078125 C17.74555023 2.23526541 23.19738294 2.11881822 28.6796875 2.07421875 C29.74058594 2.06970703 30.80148437 2.06519531 31.89453125 2.06054688 C34.48964348 2.04885718 37.08463459 2.03247151 39.6796875 2.01171875 C39.6796875 2.34171875 39.6796875 2.67171875 39.6796875 3.01171875 C25.13510943 5.85686387 9.96575129 6.00640009 -4.3203125 2.01171875 C-2.3203125 0.01171875 -2.3203125 0.01171875 0 0 Z " fill="#0F243E" transform="translate(567.3203125,633.98828125)"/>
<path d="M0 0 C-2.475 1.485 -2.475 1.485 -5 3 C-4.34 3 -3.68 3 -3 3 C-3.33 5.31 -3.66 7.62 -4 10 C-6.80362763 10.22732116 -8.46186517 10.34081872 -10.875 8.8125 C-12 7 -12 7 -11.6875 4.3125 C-11.460625 3.549375 -11.23375 2.78625 -11 2 C-9.54494642 1.47007308 -8.08581873 0.9513211 -6.625 0.4375 C-5.81289063 0.14746094 -5.00078125 -0.14257812 -4.1640625 -0.44140625 C-2 -1 -2 -1 0 0 Z " fill="#08182D" transform="translate(711,622)"/>
<path d="M0 0 C3.18895237 1.59447619 3.33255696 4.39332402 4.4375 7.6875 C6.00503252 12.34095862 7.79854312 16.61634096 10 21 C10 21.66 10 22.32 10 23 C10.66 23.33 11.32 23.66 12 24 C13.3703055 25.97485205 14.70672372 27.97386717 16 30 C15.34 30 14.68 30 14 30 C13.67 30.66 13.34 31.32 13 32 C0 8.96774194 0 8.96774194 0 0 Z " fill="#0A0E18" transform="translate(491,554)"/>
<path d="M0 0 C0.33 0.99 0.66 1.98 1 3 C1.99 2.01 2.98 1.02 4 0 C2.89061647 6.30596952 1.06802099 11.37529486 -2 17 C-2.66 16.67 -3.32 16.34 -4 16 C-3.814375 14.88625 -3.62875 13.7725 -3.4375 12.625 C-2.68319343 9.17431139 -2.68319343 9.17431139 -4 7 C-3.22265625 5.2734375 -3.22265625 5.2734375 -2.0625 3.375 C-1.381875 2.26125 -0.70125 1.1475 0 0 Z " fill="#051A34" transform="translate(450,428)"/>
<path d="M0 0 C2.31 0.33 4.62 0.66 7 1 C6.67 3.64 6.34 6.28 6 9 C4.35 8.67 2.7 8.34 1 8 C1 6 1 4 1 2 C0.67 4.31 0.34 6.62 0 9 C0.99 9.33 1.98 9.66 3 10 C1.35 9.67 -0.3 9.34 -2 9 C-2.25 3.375 -2.25 3.375 0 0 Z " fill="#0C1C32" transform="translate(444,366)"/>
<path d="M0 0 C18.34042553 -0.38297872 18.34042553 -0.38297872 27 2 C27 2.33 27 2.66 27 3 C21.02842601 3.92449827 15.51758541 3.9888273 9.5 3.5625 C8.67757812 3.51029297 7.85515625 3.45808594 7.0078125 3.40429688 C5.00477101 3.27619538 3.00231129 3.13904939 1 3 C0.67 2.01 0.34 1.02 0 0 Z " fill="#1A2F47" transform="translate(183,373)"/>
<path d="M0 0 C0.33 0 0.66 0 1 0 C2.95334382 25.53299417 2.95334382 25.53299417 0 32 C-0.33 32 -0.66 32 -1 32 C-1.14036598 21.28539694 -0.73259082 10.6879768 0 0 Z " fill="#F8F7F3" transform="translate(648,472)"/>
<path d="M0 0 C0.99 0.495 0.99 0.495 2 1 C3.21883656 8.31301936 3.10289063 15.60330657 3 23 C2.34 23.33 1.68 23.66 1 24 C-0.32915021 16.02509872 -0.08801359 8.05813281 0 0 Z " fill="#021730" transform="translate(727,465)"/>
<path d="M0 0 C0.66 0.33 1.32 0.66 2 1 C1.01 2.485 1.01 2.485 0 4 C0.66 4 1.32 4 2 4 C2 4.66 2 5.32 2 6 C0.30411736 7.54091405 -1.45821672 9.00923297 -3.25 10.4375 C-4.22453125 11.21996094 -5.1990625 12.00242187 -6.203125 12.80859375 C-8.44910335 14.5683617 -10.70709843 16.30216098 -13 18 C-11.602659 14.88711162 -9.92976075 12.63104989 -7.625 10.125 C-4.73259697 6.90048388 -2.29350408 3.66960653 0 0 Z " fill="#061122" transform="translate(851,588)"/>
<path d="M0 0 C0.98120464 3.05263664 0.98120464 4.94736336 0 8 C-0.66 8 -1.32 8 -2 8 C-2.12375 9.134375 -2.2475 10.26875 -2.375 11.4375 C-3.75712589 22.51425178 -3.75712589 22.51425178 -6 27 C-7 26 -7 26 -7.1796875 23.4140625 C-6.97706114 19.56416159 -6.16154237 16.0653849 -5.125 12.375 C-4.95097656 11.72015625 -4.77695312 11.0653125 -4.59765625 10.390625 C-2.41924182 2.41924182 -2.41924182 2.41924182 0 0 Z " fill="#0E1725" transform="translate(646,559)"/>
<path d="M0 0 C2.27057377 -0.05398987 4.54151288 -0.09278742 6.8125 -0.125 C8.07707031 -0.14820313 9.34164062 -0.17140625 10.64453125 -0.1953125 C14 0 14 0 17 2 C18.299375 2.2475 18.299375 2.2475 19.625 2.5 C20.40875 2.665 21.1925 2.83 22 3 C22.33 3.66 22.66 4.32 23 5 C17.25 5.125 17.25 5.125 15 4 C12.62876754 3.76970044 10.25258057 3.58880058 7.875 3.4375 C6.59367188 3.35371094 5.31234375 3.26992188 3.9921875 3.18359375 C2.51105469 3.09271484 2.51105469 3.09271484 1 3 C0.67 2.01 0.34 1.02 0 0 Z " fill="#142C48" transform="translate(589,371)"/>
<path d="M0 0 C0.66 0.33 1.32 0.66 2 1 C-2.75 5 -2.75 5 -5 5 C-5 5.66 -5 6.32 -5 7 C-10.625 9.125 -10.625 9.125 -14 8 C-14.33 10.64 -14.66 13.28 -15 16 C-15.33 16 -15.66 16 -16 16 C-16.36737288 9.50974576 -16.36737288 9.50974576 -14.87109375 7.43359375 C-12.37623712 5.52208564 -9.79657969 4.52251202 -6.875 3.375 C-3.16727483 2.13165027 -3.16727483 2.13165027 0 0 Z " fill="#0C131F" transform="translate(120,617)"/>
<path d="M0 0 C0.66 0 1.32 0 2 0 C3.2879632 3.8638896 3.18415915 7.53677722 3.1875 11.5625 C3.19974609 12.34302734 3.21199219 13.12355469 3.22460938 13.92773438 C3.22985217 15.95320035 3.12234328 17.97822552 3 20 C2.34 20.66 1.68 21.32 1 22 C0.67 14.74 0.34 7.48 0 0 Z " fill="#D5D8DB" transform="translate(240,420)"/>
<path d="M0 0 C7.96326473 0.19084077 7.96326473 0.19084077 11.5625 3 C12.366875 3.99 13.17125 4.98 14 6 C15.43305126 7.60814211 16.87084751 9.21206411 18.3125 10.8125 C19.54319582 12.20698528 20.77288246 13.60236488 22 15 C21.67 15.66 21.34 16.32 21 17 C20.40574219 16.26394531 19.81148438 15.52789062 19.19921875 14.76953125 C13.46234283 8.01554203 8.57644688 3.95121081 0 1 C0 0.67 0 0.34 0 0 Z " fill="#050A15" transform="translate(291,377)"/>
<path d="M0 0 C1.65 0 3.3 0 5 0 C3.72278474 4.99275057 1.82669043 7.57611908 -2 11 C-3.14947895 7.44706507 -3.0868937 6.20023331 -1.5625 2.6875 C-1.046875 1.800625 -0.53125 0.91375 0 0 Z " fill="#0B1A30" transform="translate(428,473)"/>
<path d="M0 0 C3.06003211 1.14751204 5.92843932 2.47548666 8.8125 4 C12.79564132 6.03329881 16.63494558 7.0646312 21 8 C21 8.99 21 9.98 21 11 C13.83329156 8.88523358 7.31024892 6.04532029 1 2 C0.67 1.34 0.34 0.68 0 0 Z " fill="#0C1320" transform="translate(541,624)"/>
<path d="M0 0 C0.76531996 2.84724967 1.27825331 5.63496727 1.625 8.5625 C1.72039063 9.32691406 1.81578125 10.09132813 1.9140625 10.87890625 C2 13 2 13 1 16 C1.33 16.66 1.66 17.32 2 18 C1.34 18 0.68 18 0 18 C-0.33 18.66 -0.66 19.32 -1 20 C-1.02689449 17.04160645 -1.04678741 14.08345573 -1.0625 11.125 C-1.07087891 10.28324219 -1.07925781 9.44148438 -1.08789062 8.57421875 C-1.09111328 7.76855469 -1.09433594 6.96289062 -1.09765625 6.1328125 C-1.10289307 5.38918457 -1.10812988 4.64555664 -1.11352539 3.87939453 C-1 2 -1 2 0 0 Z " fill="#031730" transform="translate(728,490)"/>
<path d="M0 0 C0.33 0 0.66 0 1 0 C1 1.65 1 3.3 1 5 C1.66 5 2.32 5 3 5 C2.37344168 7.92393881 1.5838192 10.44829129 0 13 C-0.99 13.33 -1.98 13.66 -3 14 C-2.69024532 12.22868439 -2.37709575 10.45796222 -2.0625 8.6875 C-1.88847656 7.70136719 -1.71445313 6.71523438 -1.53515625 5.69921875 C-1 3 -1 3 0 0 Z " fill="#0E1C2D" transform="translate(242,443)"/>
<path d="M0 0 C2.70108504 0.090916 5.36930311 0.23740766 8.0625 0.4375 C9.20041992 0.51581055 9.20041992 0.51581055 10.36132812 0.59570312 C12.24121722 0.72575835 14.12065685 0.86228038 16 1 C16 1.33 16 1.66 16 2 C11.05 2.33 6.1 2.66 1 3 C0.67 5.31 0.34 7.62 0 10 C0.66 10.33 1.32 10.66 2 11 C1.01 11 0.02 11 -1 11 C-1.02688151 9.35425434 -1.04634123 7.70838587 -1.0625 6.0625 C-1.07410156 5.14597656 -1.08570313 4.22945313 -1.09765625 3.28515625 C-1 1 -1 1 0 0 Z " fill="#040510" transform="translate(701,365)"/>
<path d="M0 0 C0.33 0 0.66 0 1 0 C1.33 2.31 1.66 4.62 2 7 C4.475 7.99 4.475 7.99 7 9 C7 9.99 7 10.98 7 12 C4.64828869 11.40138258 2.3140622 10.73075648 0 10 C-1.49106457 7.01787087 -1.11941467 4.28390342 -1 1 C-0.67 0.67 -0.34 0.34 0 0 Z " fill="#10243F" transform="translate(702,367)"/>
<path d="M0 0 C-0.99 0.66 -1.98 1.32 -3 2 C-0.69 2.66 1.62 3.32 4 4 C4 4.33 4 4.66 4 5 C1.89521396 4.88590318 -0.20884577 4.75834639 -2.3125 4.625 C-3.48425781 4.55539062 -4.65601563 4.48578125 -5.86328125 4.4140625 C-9 4 -9 4 -12 2 C-7.8803623 0.70756464 -4.33168317 -0.26252625 0 0 Z " fill="#F1F3F1" transform="translate(247,489)"/>
<path d="M0 0 C3.63 0 7.26 0 11 0 C11 0.66 11 1.32 11 2 C12.98 2 14.96 2 17 2 C16.67 2.66 16.34 3.32 16 4 C12.37 3.67 8.74 3.34 5 3 C5 2.67 5 2.34 5 2 C3.35 1.67 1.7 1.34 0 1 C0 0.67 0 0.34 0 0 Z " fill="#EAE9E5" transform="translate(217,363)"/>
<path d="M0 0 C1.20819014 4.83276055 0.42656946 5.88240391 -1.8125 10.1875 C-2.62654297 11.78658203 -2.62654297 11.78658203 -3.45703125 13.41796875 C-5 16 -5 16 -7 17 C-6.34 14.36 -5.68 11.72 -5 9 C-4.34 9 -3.68 9 -3 9 C-2.01 6.03 -1.02 3.06 0 0 Z " fill="#0D121E" transform="translate(302,582)"/>
<path d="M0 0 C0.99 0.33 1.98 0.66 3 1 C-0.54039134 3.9156164 -4.1626772 6.50127818 -8 9 C-8.33 8.01 -8.66 7.02 -9 6 C-7.57140593 4.96674014 -6.13177617 3.94872366 -4.6875 2.9375 C-3.88699219 2.36902344 -3.08648437 1.80054688 -2.26171875 1.21484375 C-1.51535156 0.81394531 -0.76898438 0.41304688 0 0 Z " fill="#10243C" transform="translate(501,376)"/>
<path d="M0 0 C1.32 0.33 2.64 0.66 4 1 C4 3.31 4 5.62 4 8 C2.68 7.67 1.36 7.34 0 7 C0 4.69 0 2.38 0 0 Z " fill="#011833" transform="translate(703,367)"/>
<path d="M0 0 C0.99 0.33 1.98 0.66 3 1 C2.7525 1.70125 2.505 2.4025 2.25 3.125 C1.90040748 7.14531402 3.60817813 8.88338362 6 12 C5.67 12.66 5.34 13.32 5 14 C0.07692308 7.96923077 0.07692308 7.96923077 -0.3125 3.0625 C-0.209375 2.051875 -0.10625 1.04125 0 0 Z " fill="#0B182A" transform="translate(625,384)"/>
<path d="M0 0 C0.33 0 0.66 0 1 0 C1.33 4.62 1.66 9.24 2 14 C1.34 14 0.68 14 0 14 C-0.33 14.99 -0.66 15.98 -1 17 C-1.12036664 11.22240116 -0.8320582 5.72040011 0 0 Z " fill="#040A14" transform="translate(649,527)"/>
<path d="M0 0 C0 0.99 0 1.98 0 3 C-1.75 4.38671875 -1.75 4.38671875 -4 5.6875 C-4.7425 6.12449219 -5.485 6.56148438 -6.25 7.01171875 C-6.8275 7.33785156 -7.405 7.66398437 -8 8 C-5.18918919 0 -5.18918919 0 0 0 Z " fill="#051426" transform="translate(522,401)"/>
<path d="M0 0 C0.66 0 1.32 0 2 0 C3.28006797 1.78398614 4.47660351 3.62853906 5.625 5.5 C6.57246094 7.03140625 6.57246094 7.03140625 7.5390625 8.59375 C8.02117187 9.3878125 8.50328125 10.181875 9 11 C8.34 11.66 7.68 12.32 7 13 C6.67 12.01 6.34 11.02 6 10 C5.34 9.67 4.68 9.34 4 9 C3.28752268 7.3523962 2.62599617 5.68236471 2 4 C1.34786461 2.65949948 0.68620031 1.32338632 0 0 Z " fill="#EBEDEF" transform="translate(308,390)"/>
<path d="M0 0 C5.93002267 -0.37851209 10.47239641 0.89424625 16 3 C15.34 3.66 14.68 4.32 14 5 C13.0409375 4.566875 13.0409375 4.566875 12.0625 4.125 C8.11589708 2.6752275 4.1125393 1.84221938 0 1 C0 0.67 0 0.34 0 0 Z " fill="#F8F8F8" transform="translate(801,378)"/>
<path d="M0 0 C1.98 0.99 3.96 1.98 6 3 C6 4.98 6 6.96 6 9 C0.42857143 3.85714286 0.42857143 3.85714286 0 0 Z " fill="#071324" transform="translate(506,587)"/>
<path d="M0 0 C1.64666203 0.1135629 3.29236082 0.24117381 4.9375 0.375 C5.85402344 0.44460938 6.77054688 0.51421875 7.71484375 0.5859375 C8.84599609 0.79089844 8.84599609 0.79089844 10 1 C10.33 1.66 10.66 2.32 11 3 C7.30458414 3.95024979 4.69541586 3.95024979 1 3 C0.67 2.01 0.34 1.02 0 0 Z " fill="#152841" transform="translate(207,496)"/>
<path d="M0 0 C2 2 2 2 2.1953125 3.9453125 C2.13020833 5.96354167 2.06510417 7.98177083 2 10 C-0.50298434 7.06171403 -1.46930939 4.82097239 -2 1 C-1.34 0.67 -0.68 0.34 0 0 Z " fill="#00152F" transform="translate(363,482)"/>
<path d="M0 0 C0.66 0 1.32 0 2 0 C2.33 2.97 2.66 5.94 3 9 C2.01 9.495 2.01 9.495 1 10 C-0.60725635 6.78548731 -0.05748185 3.56387464 0 0 Z " fill="#0B1424" transform="translate(288,367)"/>
<path d="M0 0 C0.33 0.99 0.66 1.98 1 3 C1.99 2.01 2.98 1.02 4 0 C3.67 1.98 3.34 3.96 3 6 C2.01 6.33 1.02 6.66 0 7 C0 6.34 0 5.68 0 5 C-0.66 5 -1.32 5 -2 5 C-1.34 3.35 -0.68 1.7 0 0 Z " fill="#021226" transform="translate(450,428)"/>
<path d="M0 0 C4.67692308 1.47692308 4.67692308 1.47692308 6.3125 4.125 C6.539375 4.74375 6.76625 5.3625 7 6 C6.34 6 5.68 6 5 6 C4.67 6.66 4.34 7.32 4 8 C2.68 5.36 1.36 2.72 0 0 Z " fill="#0E192A" transform="translate(500,578)"/>
<path d="M0 0 C0.66 0 1.32 0 2 0 C2.22174933 1.45635371 2.42698698 2.91522956 2.625 4.375 C2.74101563 5.18710937 2.85703125 5.99921875 2.9765625 6.8359375 C2.98429688 7.55007813 2.99203125 8.26421875 3 9 C2.34 9.66 1.68 10.32 1 11 C0.63890458 9.35567294 0.28629924 7.7094792 -0.0625 6.0625 C-0.25972656 5.14597656 -0.45695313 4.22945312 -0.66015625 3.28515625 C-0.77230469 2.53105469 -0.88445313 1.77695312 -1 1 C-0.67 0.67 -0.34 0.34 0 0 Z " fill="#EBEAE8" transform="translate(543,565)"/>
<path d="M0 0 C0.33 0 0.66 0 1 0 C1.33 3.63 1.66 7.26 2 11 C1.01 11 0.02 11 -1 11 C-0.67 7.37 -0.34 3.74 0 0 Z " fill="#142B45" transform="translate(920,522)"/>
<path d="M0 0 C3.36720387 1.39332574 4.9859524 2.9789286 7 6 C4 6 4 6 1.8125 4.125 C0 2 0 2 0 0 Z " fill="#232C39" transform="translate(284,513)"/>
<path d="M0 0 C2.97 0.33 5.94 0.66 9 1 C9.33 2.32 9.66 3.64 10 5 C5.05 3.02 5.05 3.02 0 1 C0 0.67 0 0.34 0 0 Z " fill="#101826" transform="translate(291,377)"/>
<path d="M0 0 C0.33 0.99 0.66 1.98 1 3 C-1.67478244 4.6627026 -3.9995144 5.99983813 -7 7 C-6.25 5.0625 -6.25 5.0625 -5 3 C-2.9375 2.375 -2.9375 2.375 -1 2 C-0.67 1.34 -0.34 0.68 0 0 Z " fill="#021328" transform="translate(246,602)"/>
<path d="M0 0 C2.875 0.25 2.875 0.25 6 1 C7.375 3.0625 7.375 3.0625 8 5 C4.62496331 3.8141763 2.35277269 2.72426311 0 0 Z " fill="#0B1829" transform="translate(216,379)"/>
<path d="M0 0 C2.46800047 1.15173355 4.04783565 2.04783565 6 4 C5.01 4.495 5.01 4.495 4 5 C1.64018187 4.06421005 -0.69631264 3.06652192 -3 2 C-2.01 1.34 -1.02 0.68 0 0 Z " fill="#E8E9E7" transform="translate(850,373)"/>
</svg>
